<?xml version="1.0" standalone="no"?>
<!DOCTYPE svg PUBLIC "-//W3C//DTD SVG 20010904//EN"
 "http://www.w3.org/TR/2001/REC-SVG-20010904/DTD/svg10.dtd">
<svg version="1.0" xmlns="http://www.w3.org/2000/svg"
 width="348.000000pt" height="348.000000pt" viewBox="0 0 348.000000 348.000000"
 preserveAspectRatio="xMidYMid meet">
<metadata>
Created by potrace 1.11, written by Peter Selinger 2001-2013
</metadata>
<g transform="translate(0.000000,348.000000) scale(0.100000,-0.100000)"
fill="#000000" stroke="none">
<path d="M1625 3300 c-22 -5 -82 -9 -134 -9 -79 -1 -109 -6 -198 -36 -58 -19
-119 -45 -137 -57 -74 -54 -225 -179 -263 -221 -81 -88 -149 -267 -174 -459
-6 -46 -22 -110 -35 -144 -16 -41 -24 -81 -24 -123 0 -34 -10 -100 -21 -146
l-21 -85 31 -35 c37 -43 42 -99 12 -136 -29 -36 -56 -16 -56 42 0 42 -1 44
-32 47 -28 3 -32 0 -35 -25 -2 -22 -9 -29 -30 -31 -32 -4 -34 -15 -12 -67 13
-32 18 -36 39 -31 31 8 105 -9 116 -26 5 -7 9 -28 9 -46 0 -52 26 -89 78 -116
67 -34 76 -47 68 -101 -7 -41 -4 -51 31 -105 58 -90 96 -103 109 -35 5 26 1
40 -15 61 -19 25 -21 36 -16 118 8 129 13 150 36 174 28 31 81 28 154 -7 67
-31 115 -80 115 -116 0 -14 9 -44 19 -67 11 -24 25 -83 31 -133 7 -49 16 -99
22 -111 22 -47 116 -89 258 -114 130 -24 128 -24 163 3 18 14 49 32 68 40 48
20 122 89 153 142 35 59 55 69 129 60 50 -5 63 -3 81 13 33 30 82 42 167 42
43 0 81 4 84 10 3 5 31 26 61 46 53 35 56 36 122 29 37 -4 77 -13 90 -21 72
-47 -51 -272 -167 -304 -67 -18 -210 -12 -278 12 -35 12 -65 19 -69 16 -10
-11 19 -60 49 -82 23 -17 40 -20 105 -18 106 4 212 28 266 63 52 32 161 172
171 219 4 16 26 51 50 77 l43 48 46 -13 c91 -24 137 -13 154 37 7 20 27 38 63
57 69 37 74 57 17 73 -24 7 -62 11 -83 9 -40 -3 -40 -3 -40 32 0 32 -2 35 -29
33 -16 -1 -37 2 -47 8 -11 5 -48 12 -84 14 -36 2 -81 13 -102 24 -55 28 -328
59 -578 66 -115 3 -406 8 -645 10 l-435 3 -84 32 c-114 42 -123 47 -119 73 4
31 37 39 323 81 495 72 895 72 1230 -1 121 -26 267 -74 294 -96 10 -8 8 -1 -5
23 -24 46 -25 233 -1 335 60 260 55 426 -17 550 -46 78 -194 192 -286 220 -14
4 -37 16 -52 27 -37 26 -246 95 -343 113 -44 8 -127 20 -185 25 -58 6 -118 12
-135 14 -16 2 -48 0 -70 -4z m645 -345 c21 -11 30 -23 30 -40 0 -36 -42 -44
-94 -18 -23 11 -54 26 -71 32 -29 12 -29 13 -10 27 25 19 108 18 145 -1z
m-326 -41 c3 -9 6 -37 6 -63 0 -52 21 -91 49 -91 24 0 34 26 21 50 -19 35 -12
50 23 50 48 0 60 -11 47 -45 -8 -22 -7 -34 8 -59 16 -28 17 -34 3 -57 -22 -39
3 -74 60 -83 77 -12 94 48 23 81 -44 21 -43 30 4 38 48 8 78 -4 120 -48 31
-32 34 -41 38 -108 5 -88 -7 -123 -48 -140 -27 -11 -39 -10 -92 9 -72 26 -89
27 -106 7 -11 -13 -9 -21 8 -45 25 -33 27 -51 10 -68 -34 -34 -98 14 -98 72 0
31 -5 38 -33 50 -68 28 -111 114 -72 146 22 18 45 5 45 -28 0 -37 21 -65 46
-60 16 3 19 11 18 48 -2 61 -9 115 -18 129 -4 6 -16 11 -27 11 -35 0 -60 20
-80 63 -21 46 -25 108 -9 138 13 23 46 25 54 3z m397 -75 c25 -13 48 -65 42
-90 -6 -22 -35 -33 -62 -24 -17 5 -71 82 -71 100 0 7 39 23 58 24 7 1 22 -4
33 -10z m-871 -995 c85 -1 175 -6 200 -10 25 -4 81 -8 125 -8 44 -1 143 -8
220 -15 95 -9 203 -11 336 -7 l196 7 17 -42 c9 -23 30 -61 46 -85 34 -48 37
-69 14 -78 -36 -14 -284 -2 -284 13 0 4 26 12 58 20 65 15 82 26 82 52 0 27
-14 31 -79 19 -109 -20 -157 -38 -169 -65 -16 -35 -130 -85 -193 -85 -61 0
-148 32 -180 66 -55 60 -148 94 -263 98 -28 1 -41 -4 -47 -16 -5 -10 -13 -26
-18 -35 -17 -34 -120 -4 -121 35 0 18 -27 15 -34 -4 -5 -14 -16 -16 -57 -11
-62 8 -102 30 -143 80 -40 50 -29 71 38 73 26 1 50 5 54 9 3 3 16 3 27 -1 11
-4 90 -8 175 -10z m-651 -120 c37 -47 19 -109 -29 -102 -29 4 -56 64 -46 103
9 34 48 34 75 -1z m1057 -227 c39 -34 36 -73 -12 -143 -46 -68 -56 -74 -158
-109 -70 -24 -88 -26 -160 -20 -121 11 -186 33 -214 75 -21 31 -23 43 -18 99
7 85 25 111 75 111 31 0 44 -7 74 -40 38 -42 55 -48 90 -28 12 7 57 13 99 14
69 2 83 6 125 33 56 37 64 38 99 8z"/>
<path d="M2094 2565 c-13 -32 17 -70 57 -73 49 -4 89 13 89 37 0 26 -28 40
-90 48 -42 5 -51 3 -56 -12z"/>
<path d="M509 1573 c-7 -19 -5 -50 7 -113 16 -83 19 -89 50 -103 29 -14 34
-14 45 -1 10 12 8 28 -9 83 -12 37 -22 80 -22 95 0 63 -51 92 -71 39z"/>
<path d="M647 1283 c-2 -4 -7 -21 -11 -37 -6 -26 -1 -34 50 -80 42 -37 71 -54
108 -63 93 -22 98 -18 69 45 -25 55 -43 72 -77 72 -28 0 -55 13 -113 55 -11 9
-23 13 -26 8z"/>
<path d="M1765 1060 c-9 -15 2 -27 50 -56 33 -19 62 -26 120 -30 42 -3 87 -9
100 -14 55 -21 75 23 29 59 -16 12 -42 21 -63 21 -20 0 -54 7 -76 15 -46 16
-151 20 -160 5z"/>
<path d="M883 1025 c-9 -26 6 -95 32 -140 14 -23 25 -49 25 -59 0 -36 78 -149
179 -259 19 -20 42 -50 51 -65 27 -44 118 -131 175 -168 68 -43 265 -140 334
-165 65 -23 153 -25 212 -4 24 9 86 36 137 61 80 39 98 53 134 102 23 31 47
60 54 64 6 4 26 52 44 105 18 54 44 115 57 136 33 52 25 69 -29 65 -38 -3 -45
-7 -65 -43 -14 -25 -23 -57 -23 -86 0 -37 -7 -55 -40 -99 -22 -29 -40 -59 -40
-66 0 -25 -23 -62 -44 -71 -11 -5 -40 -8 -64 -5 -35 3 -45 9 -58 33 -22 44
-46 35 -78 -33 -12 -23 -33 -49 -48 -57 -25 -14 -28 -14 -56 17 -17 18 -34 32
-40 32 -5 0 -15 14 -22 30 -17 42 -78 93 -99 84 -42 -17 -63 -16 -87 7 -37 35
-97 147 -91 171 7 24 -56 98 -83 98 -10 0 -27 -10 -37 -23 -10 -12 -29 -30
-43 -39 -14 -10 -35 -25 -47 -34 -19 -14 -25 -14 -50 -1 -15 8 -38 33 -51 56
-13 22 -40 55 -61 73 -21 18 -46 49 -55 68 -8 19 -20 42 -25 50 -9 15 -39 86
-61 148 -13 35 -27 41 -37 17z"/>
<path d="M1498 963 c-25 -6 -33 -41 -14 -62 26 -29 95 -46 191 -46 150 -1 304
-17 316 -32 16 -18 43 -16 89 7 22 11 66 26 98 34 36 8 57 18 57 27 0 17 -52
18 -149 0 -56 -10 -104 -9 -265 4 -227 19 -267 27 -274 55 -5 20 -15 22 -49
13z"/>
<path d="M1780 801 c0 -13 26 -21 63 -20 l32 1 -35 13 c-42 16 -60 18 -60 6z"/>
<path d="M1765 690 c3 -5 8 -10 11 -10 2 0 4 5 4 10 0 6 -5 10 -11 10 -5 0 -7
-4 -4 -10z"/>
<path d="M1858 628 c-59 -16 -44 -58 20 -58 43 0 72 16 72 39 0 31 -27 36 -92
19z"/>
</g>
</svg>
